<svg width="133" height="21" viewBox="0 0 133 21" fill="none" xmlns="http://www.w3.org/2000/svg">
<path d="M1.416 19.2L0.336002 16.848C4.728 14.784 6.384 11.088 6.72 5.184H2.14577e-06V2.592H9.384C9.384 12.552 6.576 17.088 1.416 19.2ZM22.8546 9.264V10.344C23.8866 9.432 24.4386 8.736 24.7026 7.776H16.8546V5.184H27.5346C27.5346 7.944 27.3906 9.84 24.0546 12.696L22.8546 11.496V12.12C22.8546 15.384 22.4706 17.16 19.7826 19.2L18.0066 17.304C20.4306 15.528 20.2626 14.112 20.2626 12.12V9.264H22.8546ZM38.8211 19.2V8.376C37.5011 9.168 36.1571 9.744 34.3571 10.272L33.6131 7.8C37.3091 6.672 40.6691 4.152 42.7091 1.296L44.7971 2.808C43.8611 3.984 42.6851 5.328 41.4131 6.456V19.2H38.8211ZM60.3317 2.592V15.792C61.1957 15.288 61.9157 14.544 62.8277 13.176L64.9157 14.712C63.2597 17.064 61.3157 18.936 57.7397 19.2V2.592H60.3317ZM53.0117 6.624H55.6037C55.6037 12.648 55.1237 15.264 52.4837 19.2L50.3237 17.784C53.0117 13.872 53.0117 11.544 53.0117 6.624ZM68.0422 8.976H66.7462V-3.33786e-06H76.2022V8.976H70.6342V10.272H76.2022V15C76.2022 17.976 74.9062 19.2 72.2662 19.2V16.608C73.1542 16.608 73.6102 16.248 73.6102 15V12.864H70.5862C70.4902 15.36 70.2022 16.848 69.2422 19.2L66.7462 18.48C68.0182 14.952 68.0422 13.968 68.0422 8.976ZM80.2342 15V1.296H82.8262V15C82.8262 17.976 81.5303 19.2 78.8902 19.2H76.9222V16.608H78.8902C79.7782 16.608 80.2342 16.248 80.2342 15ZM73.6102 2.592H69.3382V6.384H73.6102V2.592ZM76.9222 2.592H79.2742V15.096H76.9222V2.592ZM91.2216 1.296H93.8136V3.888H97.8936V6.48H93.8136V9.6H97.8936V12.192H93.8376C94.1736 16.608 97.5096 16.632 97.5096 16.632L97.1016 19.2C97.1016 19.2 91.5816 19.2 91.2456 12.192H87.1656V9.6H91.2216V6.48H87.1656V3.888H91.2216V1.296ZM106.132 10.248L111.484 1.296L113.692 2.616L109.156 10.248L113.692 17.856L111.484 19.2L106.132 10.248ZM127.427 1.296V12.24C127.427 16.8 128.507 17.16 131.531 16.032L132.395 18.48C126.827 20.376 124.835 18.6 124.835 12.24V1.296H127.427ZM129.299 2.592H130.787V5.664H129.299V2.592ZM132.995 5.664H131.507V2.592H132.995V5.664Z" fill="#756293"/>
</svg>
