<svg width="103" height="22" viewBox="0 0 103 22" fill="none" xmlns="http://www.w3.org/2000/svg">
<path d="M16.0799 10.248H14.7119L14.6879 9.74401C14.1839 9.98401 13.3919 10.248 12.1919 10.248C12.2399 10.56 12.2879 10.872 12.3599 11.184H14.0159L13.8479 10.392H15.5039L15.6719 11.184H16.0799V13.776H13.1519C13.3919 14.376 13.6559 14.928 13.9439 15.456C14.4479 15.024 14.9279 14.472 15.3839 13.848L16.0799 16.104C15.7919 16.56 15.4799 16.968 15.1439 17.328C15.4319 17.736 15.7439 18.144 16.0799 18.576L14.0639 19.848C13.7999 19.512 13.5359 19.176 13.2959 18.84C12.1919 19.536 11.2799 19.848 11.2799 19.848L10.2959 17.712C10.2959 17.712 10.9919 17.496 11.9759 16.92C11.4239 15.96 10.9439 14.952 10.5599 13.776H8.87994C8.85594 14.16 8.80794 14.52 8.73594 14.88L10.8239 16.608L9.16794 18.6L7.87194 17.544C7.07994 19.128 6.11994 19.848 6.11994 19.848L4.03194 18.312C4.03194 18.312 5.92794 16.8 6.26394 13.776H4.82394V11.688L3.79194 12.288L3.50394 11.808V19.848H1.15194V14.304C0.839941 14.784 0.455942 15.24 -5.84722e-05 15.648V12.096C0.791942 11.016 1.10394 9.04801 1.15194 6.62401H-5.84722e-05V4.03201H1.15194V2.28001H3.50394V4.03201H4.58394V6.62401H3.50394V8.71201L4.39194 8.18401L5.15994 9.50401V7.65601L5.78394 6.02401H5.15994V3.43201L6.59994 0.408007L7.96794 1.15201L6.88794 3.43201H7.34394V6.02401L6.83994 7.48801C7.19994 7.41601 7.51194 7.29601 7.75194 7.20001L7.63194 5.49601H8.99994L9.33594 10.248H7.96794L7.91994 9.74401C7.46394 9.96001 6.71994 10.176 5.59194 10.224L6.02394 10.968L5.66394 11.184H9.93594C9.43194 8.54401 9.21594 5.11201 9.21594 0.168007H11.5919C11.5919 4.60801 11.7599 7.72801 12.1679 10.152V7.65601L12.7679 6.02401H12.1679V3.43201L13.6079 0.408007L14.7119 1.15201L13.6559 3.43201H14.1119V6.02401L13.5839 7.51201C13.9439 7.44001 14.2559 7.32001 14.4959 7.22401L14.3759 5.49601H15.7439L16.0799 10.248ZM26.0353 7.68001H23.3713L23.3233 7.36801C22.1713 7.51201 20.3233 7.68001 17.9953 7.68001V5.08801L20.4673 6.67572e-06L22.7953 1.15201L20.9233 4.96801C21.6433 4.92001 22.3153 4.84801 22.8913 4.80001L22.6273 3.24001H25.2913L26.0353 7.68001ZM29.3473 4.29601V5.56801C29.3473 6.81601 29.8033 7.17601 30.6673 7.17601H34.0753V9.76801H30.6673C28.0513 9.76801 26.7553 8.54401 26.7553 5.56801V0.168007H29.3473V1.63201L33.5953 0.600006V3.26401L29.3473 4.29601ZM23.4433 16.392H20.5873V19.848H17.9953V8.40001H26.0353V16.608C26.0353 19.584 24.7393 19.848 22.0993 19.848V18.216C22.9873 18.216 23.4433 17.856 23.4433 16.608V16.392ZM29.3473 14.376V15.648C29.3473 16.896 29.8033 17.256 30.6673 17.256H34.0753V19.848H30.6673C28.0513 19.848 26.7553 18.624 26.7553 15.648V10.248H29.3473V11.712L33.5953 10.68V13.344L29.3473 14.376ZM23.4433 10.992H20.5873V12.192H23.4433V10.992ZM23.4433 13.68H20.5873V14.904H23.4433V13.68ZM37.2866 9.62401H35.9906V0.648007H45.4466V9.62401H39.8786V10.92H45.4466V15.648C45.4466 18.624 44.1506 19.848 41.5106 19.848V17.256C42.3986 17.256 42.8546 16.896 42.8546 15.648V13.512H39.8306C39.7346 16.008 39.4466 17.496 38.4866 19.848L35.9906 19.128C37.2626 15.6 37.2866 14.616 37.2866 9.62401ZM49.4786 15.648V1.94401H52.0706V15.648C52.0706 18.624 50.7746 19.848 48.1346 19.848H46.1666V17.256H48.1346C49.0226 17.256 49.4786 16.896 49.4786 15.648ZM42.8546 3.24001H38.5826V7.03201H42.8546V3.24001ZM46.1666 3.24001H48.5186V15.744H46.1666V3.24001ZM60.4659 1.94401H63.0579V4.53601H67.1379V7.12801H63.0579V10.248H67.1379V12.84H63.0819C63.4179 17.256 66.7539 17.28 66.7539 17.28L66.3459 19.848C66.3459 19.848 60.8259 19.848 60.4899 12.84H56.4099V10.248H60.4659V7.12801H56.4099V4.53601H60.4659V1.94401ZM75.3764 10.896L80.7284 1.94401L82.9364 3.26401L78.4004 10.896L82.9364 18.504L80.7284 19.848L75.3764 10.896ZM96.671 1.94401V12.888C96.671 17.448 97.751 17.808 100.775 16.68L101.639 19.128C96.071 21.024 94.079 19.248 94.079 12.888V1.94401H96.671ZM98.543 3.24001H100.031V6.31201H98.543V3.24001ZM102.239 6.31201H100.751V3.24001H102.239V6.31201Z" fill="#756293"/>
</svg>
