<svg width="49" height="21" viewBox="0 0 49 21" fill="none" xmlns="http://www.w3.org/2000/svg">
<path d="M2.32802 2.736H4.94402C4.94402 3.168 4.92002 3.6 4.89602 4.032H10.392V11.04C10.392 16.824 7.27202 19.608 3.79202 20.64L2.71202 18.288C5.30402 17.424 6.93602 16.056 7.53603 13.536L3.91202 12.24L4.80002 9.792L7.80002 10.896V6.624H4.60802C4.17602 8.856 3.38402 10.824 2.08802 12.48L2.44379e-05 10.968C1.70402 8.736 2.32802 6.024 2.32802 2.736ZM27.1746 3.072H25.6866V-9.53674e-07H27.1746V3.072ZM27.8706 3.072V-9.53674e-07H29.3586V3.072H27.8706ZM19.8066 2.736H22.3986C22.3986 3.168 22.3986 3.6 22.3746 4.032H27.8706V11.04C27.8706 16.824 24.7506 19.608 21.2706 20.64L20.1906 18.288C23.5506 17.184 25.2786 15.192 25.2786 11.04V6.624H22.0626C21.6546 8.832 20.8626 10.8 19.5666 12.432L17.4786 10.92C19.1826 8.688 19.8066 5.976 19.8066 2.736ZM33.7331 10.416H32.4371V1.44H41.8931V10.416H36.3251V11.712H41.8931V16.44C41.8931 19.416 40.5971 20.64 37.9571 20.64V18.048C38.8451 18.048 39.3011 17.688 39.3011 16.44V14.304H36.2771C36.1811 16.8 35.8931 18.288 34.9331 20.64L32.4371 19.92C33.7091 16.392 33.7331 15.408 33.7331 10.416ZM45.9251 16.44V2.736H48.5171V16.44C48.5171 19.416 47.2211 20.64 44.5811 20.64H42.6131V18.048H44.5811C45.4691 18.048 45.9251 17.688 45.9251 16.44ZM39.3011 4.032H35.0291V7.824H39.3011V4.032ZM42.6131 4.032H44.9651V16.536H42.6131V4.032Z" fill="#756293"/>
</svg>
